<?xml version="1.0" encoding="UTF-8"?><svg id="uuid-2aa41b54-d932-410b-9863-7bbf1f58d8ea" xmlns="http://www.w3.org/2000/svg" width="107.91" height="27.16" viewBox="0 0 107.91 27.16"><defs><style>.uuid-c80efbab-d8fe-4314-a081-dec2720a3776{fill:#fff;}</style></defs><polygon class="uuid-c80efbab-d8fe-4314-a081-dec2720a3776" points="6.8 .23 .04 7.01 .04 15.48 13.56 15.48 13.56 7.01 6.8 .23"/><polygon class="uuid-c80efbab-d8fe-4314-a081-dec2720a3776" points="28.51 .35 24.39 11.45 20.26 .35 16.43 .35 22.81 16.23 25.87 16.23 32.25 .35 28.51 .35"/><polygon class="uuid-c80efbab-d8fe-4314-a081-dec2720a3776" points="34.79 .35 34.79 16.11 46.8 16.11 46.8 13.03 38.24 13.03 38.24 9.72 45.67 9.72 45.67 6.63 38.24 6.63 38.24 3.43 46.69 3.43 46.69 .35 34.79 .35"/><path class="uuid-c80efbab-d8fe-4314-a081-dec2720a3776" d="M56.98,8.01c1.69,0,2.66-.9,2.66-2.23v-.05c0-1.49-1.04-2.25-2.73-2.25h-3.45v4.53h3.51ZM50,.35h7.21c2,0,3.56,.56,4.59,1.6,.88,.88,1.35,2.12,1.35,3.6v.05c0,2.55-1.37,4.14-3.38,4.89l3.85,5.63h-4.06l-3.38-5.05h-2.73v5.05h-3.47V.35Z"/><polygon class="uuid-c80efbab-d8fe-4314-a081-dec2720a3776" points="65.27 .35 65.27 3.54 70.07 3.54 70.07 16.11 73.54 16.11 73.54 3.54 78.33 3.54 78.33 .35 65.27 .35"/><path class="uuid-c80efbab-d8fe-4314-a081-dec2720a3776" d="M85.59,4.4l2.1,5.11h-4.19l2.09-5.11Zm-1.55-4.17l-6.76,15.88h3.54l1.44-3.54h6.67l1.44,3.54h3.63L87.23,.23h-3.2Z"/><polygon class="uuid-c80efbab-d8fe-4314-a081-dec2720a3776" points="96.53 .35 96.53 16.11 107.86 16.11 107.86 12.96 100 12.96 100 .35 96.53 .35"/><path class="uuid-c80efbab-d8fe-4314-a081-dec2720a3776" d="M105.38,26.93c.74,0,1.34-.3,1.75-.65v-1.76h-1.79v.64h1.07v.79c-.26,.19-.62,.32-1.01,.32-.86,0-1.43-.64-1.43-1.5h0c0-.82,.59-1.49,1.36-1.49,.53,0,.85,.17,1.18,.45l.47-.56c-.43-.37-.88-.57-1.61-.57-1.27,0-2.17,1-2.17,2.17h0c0,1.24,.86,2.17,2.18,2.17m-13.96-.07h.73v-2.99l2.32,2.99h.62v-4.2h-.73v2.9l-2.25-2.9h-.68v4.2Zm-9.09,0h.74v-4.2h-.74v4.2Zm-10.99,0h2.95v-.67h-2.21v-3.53h-.74v4.2Zm-11.25,0h3.14v-.66h-2.41v-1.13h2.11v-.66h-2.11v-1.09h2.38v-.66h-3.11v4.2Zm-11.18-.67v-2.86h.83c.88,0,1.46,.61,1.46,1.43h0c0,.83-.58,1.43-1.46,1.43h-.83Zm-.74,.67h1.57c1.32,0,2.23-.92,2.23-2.1h0c0-1.19-.91-2.1-2.23-2.1h-1.57v4.2Zm-10.31-.61c-.83,0-1.43-.68-1.43-1.49h0c0-.83,.58-1.49,1.42-1.49s1.43,.68,1.43,1.49h0c0,.83-.58,1.49-1.42,1.49m-.01,.68c1.29,0,2.2-.99,2.2-2.17h0c0-1.19-.9-2.17-2.19-2.17s-2.2,.99-2.2,2.17h0c0,1.19,.9,2.17,2.19,2.17m-14.44-.07h.73v-3l1.31,1.97h.02l1.33-1.98v3.01h.74v-4.2h-.79l-1.28,1.99-1.28-1.99h-.79v4.2Zm-11.25,0h3.14v-.66h-2.41v-1.13h2.11v-.66h-2.11v-1.09h2.38v-.66h-3.11v4.2ZM1.32,24.74v-1.41h1.07c.55,0,.87,.25,.87,.7h0c0,.44-.34,.71-.86,.71H1.32Zm-.74,2.12h.74v-1.46h.92l1.03,1.46h.87l-1.13-1.59c.59-.17,1-.58,1-1.27h0c0-.38-.13-.69-.35-.92-.27-.26-.68-.42-1.21-.42H.58v4.2Z"/></svg>